<svg xmlns="http://www.w3.org/2000/svg" xmlns:xlink="http://www.w3.org/1999/xlink" width="1150" height="798.14"><rect width="1150" height="798.14" rx="5" ry="5" class="a"/><svg y="0%" x="0%"><circle cx="20" cy="20" r="6" fill="#ff5f58"/><circle cx="40" cy="20" r="6" fill="#ffbd2e"/><circle cx="60" cy="20" r="6" fill="#18c132"/></svg><svg height="738.14" viewBox="0 0 111 73.814" width="1110" x="15" xmlns="http://www.w3.org/2000/svg" xmlns:xlink="http://www.w3.org/1999/xlink" y="50"><style>@keyframes C{0%{transform:translateX(-222px)}4.7%{transform:translateX(-333px)}5.2%{transform:translateX(-444px)}7.4%{transform:translateX(-555px)}8.5%{transform:translateX(-666px)}9.1%{transform:translateX(-777px)}12.2%{transform:translateX(-888px)}12.8%{transform:translateX(-999px)}15%{transform:translateX(-1110px)}15.7%{transform:translateX(-1221px)}16.7%{transform:translateX(-1332px)}17.2%{transform:translateX(-1443px)}18.2%{transform:translateX(-1554px)}18.3%{transform:translateX(-2442px)}29%{transform:translateX(-2553px)}29.5%{transform:translateX(-2664px)}30%{transform:translateX(-2775px)}30.7%{transform:translateX(-2886px)}33.5%{transform:translateX(-2997px)}34%{transform:translateX(-3108px)}35.1%{transform:translateX(-3219px)}36.1%{transform:translateX(-3330px)}37.8%{transform:translateX(-3441px)}37.9%{transform:translateX(-3552px)}46%{transform:translateX(-3663px)}46.3%{transform:translateX(-3774px)}61.7%{transform:translateX(-3885px)}62%{transform:translateX(-3996px)}62.5%{transform:translateX(-4107px)}62.6%{transform:translateX(-4218px)}63.1%{transform:translateX(-4995px)}to{transform:translateX(-5106px)}}.a{fill:#282d35}.f{fill:#b9c0cb;white-space:pre}.h{fill:#71bef2;font-weight:700}.h,.i,.j,.k{white-space:pre}.i{fill:#d290e4;font-weight:700}.j,.k{fill:#66c2cd}.k{fill:#b9c0cb;font-weight:700}</style><g font-family="Monaco,Consolas,Menlo,'Bitstream Vera Sans Mono','Powerline Symbols',monospace" font-size="1.67"><defs><symbol id="1"><text y="1.67" class="f">$</text></symbol><symbol id="2"><text y="1.67" class="f">$</text><text x="2.004" y="1.67" class="f">t</text></symbol><symbol id="3"><text y="1.67" class="f">$</text><text x="2.004" y="1.67" class="f">tree</text></symbol><symbol id="4"><text y="1.67" class="f">$</text><text x="2.004" y="1.67" class="f">tree</text><text x="7.014" y="1.67" class="f">./data</text></symbol><symbol id="5"><text y="1.67" style="white-space:pre" fill="#66c2cd" font-weight="700">./data</text></symbol><symbol id="6"><text y="1.67" class="f">├──</text><text x="4.008" y="1.67" class="h">grayscale</text></symbol><symbol id="7"><text y="1.67" class="f">│</text><text x="4.008" y="1.67" class="f">├──</text><text x="8.016" y="1.67" class="i">gray_3857-cog.tif</text></symbol><symbol id="8"><text y="1.67" class="f">│</text><text x="4.008" y="1.67" class="f">└──</text><text x="8.016" y="1.67" class="i">output_cog.tif</text></symbol><symbol id="9"><text y="1.67" class="f">├──</text><text x="4.008" y="1.67" class="h">mycustomstyle</text></symbol><symbol id="10"><text y="1.67" class="f">│</text><text x="4.008" y="1.67" class="f">├──</text><text x="8.016" y="1.67" class="f">style.txt</text></symbol><symbol id="11"><text y="1.67" class="f">│</text><text x="4.008" y="1.67" class="f">└──</text><text x="8.016" y="1.67" class="i">treescape.tif</text></symbol><symbol id="12"><text y="1.67" class="f">└──</text><text x="4.008" y="1.67" class="h">viridis</text></symbol><symbol id="13"><text x="4.008" y="1.67" class="f">└──</text><text x="8.016" y="1.67" class="i">elevation-profile-74.tif</text></symbol><symbol id="14"><text y="1.67" class="f">4</text><text x="2.004" y="1.67" class="f">directories,</text><text x="15.03" y="1.67" class="f">5</text><text x="17.034" y="1.67" class="f">files</text></symbol><symbol id="15"><text y="1.67" class="f">$</text><text x="2.004" y="1.67" class="f">tileyolo</text></symbol><symbol id="16"><text y="1.67" class="f">Reading</text><text x="8.016" y="1.67" class="f">gray_3857-cog</text><text x="40.08" y="1.67" class="f">(214.25/668.34</text><text x="55.11" y="1.67" class="f">MiB)</text></symbol><symbol id="17"><text y="1.67" class="f">[</text><text x="1.002" y="1.67" class="j">██████████</text><text x="41.082" y="1.67" class="f">]</text><text x="43.086" y="1.67" class="f">1/4</text><text x="47.094" y="1.67" class="f">25%</text></symbol><symbol id="18"><text y="1.67" class="f">Reading</text><text x="8.016" y="1.67" class="f">output_cog</text><text x="40.08" y="1.67" class="f">(579.38/668.34</text><text x="55.11" y="1.67" class="f">MiB)</text></symbol><symbol id="19"><text y="1.67" class="f">[</text><text x="1.002" y="1.67" class="j">████████████████████</text><text x="41.082" y="1.67" class="f">]</text><text x="43.086" y="1.67" class="f">2/4</text><text x="47.094" y="1.67" class="f">50%</text></symbol><symbol id="20"><text y="1.67" class="f">Reading</text><text x="8.016" y="1.67" class="f">treescape</text><text x="40.08" y="1.67" class="f">(625.56/668.34</text><text x="55.11" y="1.67" class="f">MiB)</text></symbol><symbol id="21"><text y="1.67" class="f">[</text><text x="1.002" y="1.67" class="j">██████████████████████████████</text><text x="41.082" y="1.67" class="f">]</text><text x="43.086" y="1.67" class="f">3/4</text><text x="47.094" y="1.67" class="f">75%</text></symbol><symbol id="22"><text y="1.67" class="f">Reading</text><text x="8.016" y="1.67" class="f">elevation-profile-74</text><text x="40.08" y="1.67" class="f">(668.34/668.34</text><text x="55.11" y="1.67" class="f">MiB)</text></symbol><symbol id="23"><text y="1.67" class="f">[</text><text x="1.002" y="1.67" class="j">████████████████████████████████████████</text><text x="41.082" y="1.67" class="f">]</text><text x="43.086" y="1.67" class="f">4/4</text><text x="47.094" y="1.67" class="f">100%</text></symbol><symbol id="24"><text y="1.67" class="f">✅</text><text x="2.004" y="1.67" class="f">All</text><text x="6.012" y="1.67" class="f">files</text><text x="12.024" y="1.67" class="f">loaded!</text></symbol><symbol id="25"><text y="1.67" class="f">📦</text><text x="3.006" y="1.67" class="f">Total</text><text x="9.018" y="1.67" class="f">bytes:</text><text x="16.032" y="1.67" class="f">668.34</text><text x="23.046" y="1.67" class="f">MiB</text></symbol><symbol id="26"><text y="1.67" class="f">📦</text><text x="3.006" y="1.67" class="f">Total</text><text x="9.018" y="1.67" class="f">layers:</text><text x="17.034" y="1.67" class="f">4</text></symbol><symbol id="27"><text y="1.67" class="f">Style</text><text x="6.012" y="1.67" class="f">summary:</text></symbol><symbol id="28"><text y="1.67" class="f">+-----------------------------------------------------------------------------------------------------------+</text></symbol><symbol id="29"><text y="1.67" class="f">|</text><text x="11.022" y="1.67" class="k">Style</text><text x="23.046" y="1.67" class="k">Layers</text><text x="47.094" y="1.67" class="k">Breaks</text><text x="75.15" y="1.67" class="k">Min</text><text x="88.176" y="1.67" class="k">Max</text><text x="97.194" y="1.67" class="k">Colourbar</text><text x="108.216" y="1.67" class="f">|</text></symbol><symbol id="30"><text y="1.67" class="f">+===========================================================================================================+</text></symbol><symbol id="31"><text y="1.67" class="f">|</text><text x="2.004" y="1.67" class="f">⚠️</text><text x="7.014" y="1.67" class="f">mycustomstyle</text><text x="26.052" y="1.67" class="f">1</text><text x="32.064" y="1.67" class="f">0.00,</text><text x="38.076" y="1.67" class="f">100.00,</text><text x="46.092" y="1.67" class="f">200.00,</text><text x="54.108" y="1.67" class="f">300.00,</text><text x="62.124" y="1.67" class="f">400.00</text><text x="71.142" y="1.67" class="f">0.026803954</text><text x="85.17" y="1.67" class="f">54253.168</text><text x="97.194" y="1.67" style="white-space:pre" fill="#d7191c">█</text><text x="98.196" y="1.67" style="white-space:pre" fill="#fdae61">█</text><text x="99.198" y="1.67" style="white-space:pre" fill="#ffffbf">█</text><text x="100.2" y="1.67" style="white-space:pre" fill="#abdda4">█</text><text x="101.202" y="1.67" style="white-space:pre" fill="#2b83ba">█</text><text x="108.216" y="1.67" class="f">|</text></symbol><symbol id="32"><text y="1.67" class="f">|</text><text x="2.004" y="1.67" class="f">✅</text><text x="7.014" y="1.67" class="f">grayscale</text><text x="26.052" y="1.67" class="f">2</text><text x="76.152" y="1.67" class="f">45</text><text x="88.176" y="1.67" class="f">255</text><text x="108.216" y="1.67" class="f">|</text></symbol><symbol id="33"><text y="1.67" class="f">|</text><text x="2.004" y="1.67" class="f">⚠️</text><text x="7.014" y="1.67" class="f">viridis</text><text x="26.052" y="1.67" class="f">1</text><text x="48.096" y="1.67" class="f">auto</text><text x="76.152" y="1.67" class="f">0</text><text x="86.172" y="1.67" class="f">746.1015</text><text x="97.194" y="1.67" style="white-space:pre" fill="#440154">█</text><text x="98.196" y="1.67" style="white-space:pre" fill="#462271">█</text><text x="99.198" y="1.67" style="white-space:pre" fill="#414285">█</text><text x="100.2" y="1.67" style="white-space:pre" fill="#365d8c">█</text><text x="101.202" y="1.67" style="white-space:pre" fill="#2b768e">█</text><text x="102.204" y="1.67" style="white-space:pre" fill="#248f8c">█</text><text x="103.206" y="1.67" style="white-space:pre" fill="#3dae78">█</text><text x="104.208" y="1.67" style="white-space:pre" fill="#7ccf50">█</text><text x="105.21" y="1.67" style="white-space:pre" fill="#bede2f">█</text><text x="106.212" y="1.67" style="white-space:pre" fill="#fee825">█</text><text x="108.216" y="1.67" class="f">|</text></symbol><symbol id="34"><text y="1.67" class="f">Warnings:</text></symbol><symbol id="35"><text x="2.004" y="1.67" class="f">⚠️mycustomstyle:</text><text x="19.038" y="1.67" class="f">Colour</text><text x="26.052" y="1.67" class="f">stops</text><text x="32.064" y="1.67" class="f">[0.00…400.00]</text><text x="46.092" y="1.67" class="f">do</text><text x="49.098" y="1.67" class="f">NOT</text><text x="53.106" y="1.67" class="f">cover</text><text x="59.118" y="1.67" class="f">data</text><text x="64.128" y="1.67" class="f">range</text><text x="70.14" y="1.67" class="f">[0.03…54253.17]</text></symbol><symbol id="36"><text x="2.004" y="1.67" class="f">⚠️mycustomstyle:</text><text x="19.038" y="1.67" class="f">0</text><text x="21.042" y="1.67" class="f">of</text><text x="24.048" y="1.67" class="f">1</text><text x="26.052" y="1.67" class="f">layers</text><text x="33.066" y="1.67" class="f">are</text><text x="37.074" y="1.67" class="f">COGs,</text><text x="43.086" y="1.67" class="f">performance</text><text x="55.11" y="1.67" class="f">will</text><text x="60.12" y="1.67" class="f">be</text><text x="63.126" y="1.67" class="f">degraded</text><text x="72.144" y="1.67" class="f">on</text><text x="75.15" y="1.67" class="f">large</text><text x="81.162" y="1.67" class="f">datasets</text></symbol><symbol id="37"><text x="2.004" y="1.67" class="f">⚠️viridis:</text><text x="13.026" y="1.67" class="f">0</text><text x="15.03" y="1.67" class="f">of</text><text x="18.036" y="1.67" class="f">1</text><text x="20.04" y="1.67" class="f">layers</text><text x="27.054" y="1.67" class="f">are</text><text x="31.062" y="1.67" class="f">COGs,</text><text x="37.074" y="1.67" class="f">performance</text><text x="49.098" y="1.67" class="f">will</text><text x="54.108" y="1.67" class="f">be</text><text x="57.114" y="1.67" class="f">degraded</text><text x="66.132" y="1.67" class="f">on</text><text x="69.138" y="1.67" class="f">large</text><text x="75.15" y="1.67" class="f">datasets</text></symbol><symbol id="38"><text y="1.67" class="f">🚀</text><text x="3.006" y="1.67" class="f">TileYolo</text><text x="12.024" y="1.67" class="f">serving</text><text x="20.04" y="1.67" class="f">on</text><text x="23.046" y="1.67" class="f">0.0.0.0:8000.</text><text x="37.074" y="1.67" class="f">Example:</text><text x="46.092" y="1.67" class="f">http://0.0.0.0:8000/tiles/output_cog/0/0/0</text></symbol><symbol id="a"><path fill="transparent" d="M0 0h111v34H0z"/></symbol><symbol id="b"><path fill="#6f7683" d="M0 0h1.102v2.171H0z"/></symbol></defs><path class="a" d="M0 0h111v73.814H0z"/><g style="animation-duration:16.267747s;animation-iteration-count:infinite;animation-name:C;animation-timing-function:steps(1,end)"><svg width="5217"><svg><use xlink:href="#a"/><use xlink:href="#b" x="-.004"/></svg><svg x="111"><use xlink:href="#a"/><use xlink:href="#b" x="-.004"/></svg><svg x="222"><use xlink:href="#a"/><use xlink:href="#b" x="1.996"/><use xlink:href="#1"/></svg><svg x="333"><use xlink:href="#a"/><use xlink:href="#b" x="2.996"/><use xlink:href="#2"/></svg><svg x="444"><use xlink:href="#a"/><use xlink:href="#b" x="3.996"/><text y="1.67" class="f">$</text><text x="2.004" y="1.67" class="f">tr</text></svg><svg x="555"><use xlink:href="#a"/><use xlink:href="#b" x="4.996"/><text y="1.67" class="f">$</text><text x="2.004" y="1.67" class="f">tre</text></svg><svg x="666"><use xlink:href="#a"/><use xlink:href="#b" x="5.996"/><use xlink:href="#3"/></svg><svg x="777"><use xlink:href="#a"/><use xlink:href="#b" x="6.996"/><use xlink:href="#3"/></svg><svg x="888"><use xlink:href="#a"/><use xlink:href="#b" x="7.996"/><text y="1.67" class="f">$</text><text x="2.004" y="1.67" class="f">tree</text><text x="7.014" y="1.67" class="f">.</text></svg><svg x="999"><use xlink:href="#a"/><use xlink:href="#b" x="8.996"/><text y="1.67" class="f">$</text><text x="2.004" y="1.67" class="f">tree</text><text x="7.014" y="1.67" class="f">./</text></svg><svg x="1110"><use xlink:href="#a"/><use xlink:href="#b" x="9.996"/><text y="1.67" class="f">$</text><text x="2.004" y="1.67" class="f">tree</text><text x="7.014" y="1.67" class="f">./d</text></svg><svg x="1221"><use xlink:href="#a"/><use xlink:href="#b" x="10.996"/><text y="1.67" class="f">$</text><text x="2.004" y="1.67" class="f">tree</text><text x="7.014" y="1.67" class="f">./da</text></svg><svg x="1332"><use xlink:href="#a"/><use xlink:href="#b" x="11.996"/><text y="1.67" class="f">$</text><text x="2.004" y="1.67" class="f">tree</text><text x="7.014" y="1.67" class="f">./dat</text></svg><svg x="1443"><use xlink:href="#a"/><use xlink:href="#b" x="12.996"/><use xlink:href="#4"/></svg><svg x="1554"><use xlink:href="#a"/><use xlink:href="#b" x="-.004" y="2.146"/><use xlink:href="#4"/></svg><svg x="1665"><use xlink:href="#a"/><use xlink:href="#b" x="-.004" y="4.317"/><use xlink:href="#4"/><use xlink:href="#5" y="2.171"/></svg><svg x="1776"><use xlink:href="#a"/><use xlink:href="#b" x="-.004" y="8.659"/><use xlink:href="#4"/><use xlink:href="#5" y="2.171"/><use xlink:href="#6" y="4.342"/><use xlink:href="#7" y="6.513"/></svg><svg x="1887"><use xlink:href="#a"/><use xlink:href="#b" x="-.004" y="10.83"/><use xlink:href="#4"/><use xlink:href="#5" y="2.171"/><use xlink:href="#6" y="4.342"/><use xlink:href="#7" y="6.513"/><use xlink:href="#8" y="8.684"/></svg><svg x="1998"><use xlink:href="#a"/><use xlink:href="#b" x="-.004" y="15.172"/><use xlink:href="#4"/><use xlink:href="#5" y="2.171"/><use xlink:href="#6" y="4.342"/><use xlink:href="#7" y="6.513"/><use xlink:href="#8" y="8.684"/><use xlink:href="#9" y="10.855"/><use xlink:href="#10" y="13.026"/></svg><svg x="2109"><use xlink:href="#a"/><use xlink:href="#b" x="-.004" y="17.343"/><use xlink:href="#4"/><use xlink:href="#5" y="2.171"/><use xlink:href="#6" y="4.342"/><use xlink:href="#7" y="6.513"/><use xlink:href="#8" y="8.684"/><use xlink:href="#9" y="10.855"/><use xlink:href="#10" y="13.026"/><use xlink:href="#11" y="15.197"/></svg><svg x="2220"><use xlink:href="#a"/><use xlink:href="#b" x="-.004" y="23.856"/><use xlink:href="#4"/><use xlink:href="#5" y="2.171"/><use xlink:href="#6" y="4.342"/><use xlink:href="#7" y="6.513"/><use xlink:href="#8" y="8.684"/><use xlink:href="#9" y="10.855"/><use xlink:href="#10" y="13.026"/><use xlink:href="#11" y="15.197"/><use xlink:href="#12" y="17.368"/><use xlink:href="#13" y="19.539"/></svg><svg x="2331"><use xlink:href="#a"/><use xlink:href="#b" x="-.004" y="26.027"/><use xlink:href="#4"/><use xlink:href="#5" y="2.171"/><use xlink:href="#6" y="4.342"/><use xlink:href="#7" y="6.513"/><use xlink:href="#8" y="8.684"/><use xlink:href="#9" y="10.855"/><use xlink:href="#10" y="13.026"/><use xlink:href="#11" y="15.197"/><use xlink:href="#12" y="17.368"/><use xlink:href="#13" y="19.539"/><use xlink:href="#14" y="23.881"/></svg><svg x="2442"><use xlink:href="#a"/><use xlink:href="#b" x="1.996" y="26.027"/><use xlink:href="#4"/><use xlink:href="#5" y="2.171"/><use xlink:href="#6" y="4.342"/><use xlink:href="#7" y="6.513"/><use xlink:href="#8" y="8.684"/><use xlink:href="#9" y="10.855"/><use xlink:href="#10" y="13.026"/><use xlink:href="#11" y="15.197"/><use xlink:href="#12" y="17.368"/><use xlink:href="#13" y="19.539"/><use xlink:href="#14" y="23.881"/><use xlink:href="#1" y="26.052"/></svg><svg x="2553"><use xlink:href="#a"/><use xlink:href="#b" x="2.996" y="26.027"/><use xlink:href="#4"/><use xlink:href="#5" y="2.171"/><use xlink:href="#6" y="4.342"/><use xlink:href="#7" y="6.513"/><use xlink:href="#8" y="8.684"/><use xlink:href="#9" y="10.855"/><use xlink:href="#10" y="13.026"/><use xlink:href="#11" y="15.197"/><use xlink:href="#12" y="17.368"/><use xlink:href="#13" y="19.539"/><use xlink:href="#14" y="23.881"/><use xlink:href="#2" y="26.052"/></svg><svg x="2664"><use xlink:href="#a"/><use xlink:href="#b" x="3.996" y="26.027"/><use xlink:href="#4"/><use xlink:href="#5" y="2.171"/><use xlink:href="#6" y="4.342"/><use xlink:href="#7" y="6.513"/><use xlink:href="#8" y="8.684"/><use xlink:href="#9" y="10.855"/><use xlink:href="#10" y="13.026"/><use xlink:href="#11" y="15.197"/><use xlink:href="#12" y="17.368"/><use xlink:href="#13" y="19.539"/><use xlink:href="#14" y="23.881"/><text y="27.722" class="f">$</text><text x="2.004" y="27.722" class="f">ti</text></svg><svg x="2775"><use xlink:href="#a"/><use xlink:href="#b" x="4.996" y="26.027"/><use xlink:href="#4"/><use xlink:href="#5" y="2.171"/><use xlink:href="#6" y="4.342"/><use xlink:href="#7" y="6.513"/><use xlink:href="#8" y="8.684"/><use xlink:href="#9" y="10.855"/><use xlink:href="#10" y="13.026"/><use xlink:href="#11" y="15.197"/><use xlink:href="#12" y="17.368"/><use xlink:href="#13" y="19.539"/><use xlink:href="#14" y="23.881"/><text y="27.722" class="f">$</text><text x="2.004" y="27.722" class="f">til</text></svg><svg x="2886"><use xlink:href="#a"/><use xlink:href="#b" x="5.996" y="26.027"/><use xlink:href="#4"/><use xlink:href="#5" y="2.171"/><use xlink:href="#6" y="4.342"/><use xlink:href="#7" y="6.513"/><use xlink:href="#8" y="8.684"/><use xlink:href="#9" y="10.855"/><use xlink:href="#10" y="13.026"/><use xlink:href="#11" y="15.197"/><use xlink:href="#12" y="17.368"/><use xlink:href="#13" y="19.539"/><use xlink:href="#14" y="23.881"/><text y="27.722" class="f">$</text><text x="2.004" y="27.722" class="f">tile</text></svg><svg x="2997"><use xlink:href="#a"/><use xlink:href="#b" x="6.996" y="26.027"/><use xlink:href="#4"/><use xlink:href="#5" y="2.171"/><use xlink:href="#6" y="4.342"/><use xlink:href="#7" y="6.513"/><use xlink:href="#8" y="8.684"/><use xlink:href="#9" y="10.855"/><use xlink:href="#10" y="13.026"/><use xlink:href="#11" y="15.197"/><use xlink:href="#12" y="17.368"/><use xlink:href="#13" y="19.539"/><use xlink:href="#14" y="23.881"/><text y="27.722" class="f">$</text><text x="2.004" y="27.722" class="f">tiley</text></svg><svg x="3108"><use xlink:href="#a"/><use xlink:href="#b" x="7.996" y="26.027"/><use xlink:href="#4"/><use xlink:href="#5" y="2.171"/><use xlink:href="#6" y="4.342"/><use xlink:href="#7" y="6.513"/><use xlink:href="#8" y="8.684"/><use xlink:href="#9" y="10.855"/><use xlink:href="#10" y="13.026"/><use xlink:href="#11" y="15.197"/><use xlink:href="#12" y="17.368"/><use xlink:href="#13" y="19.539"/><use xlink:href="#14" y="23.881"/><text y="27.722" class="f">$</text><text x="2.004" y="27.722" class="f">tileyo</text></svg><svg x="3219"><use xlink:href="#a"/><use xlink:href="#b" x="8.996" y="26.027"/><use xlink:href="#4"/><use xlink:href="#5" y="2.171"/><use xlink:href="#6" y="4.342"/><use xlink:href="#7" y="6.513"/><use xlink:href="#8" y="8.684"/><use xlink:href="#9" y="10.855"/><use xlink:href="#10" y="13.026"/><use xlink:href="#11" y="15.197"/><use xlink:href="#12" y="17.368"/><use xlink:href="#13" y="19.539"/><use xlink:href="#14" y="23.881"/><text y="27.722" class="f">$</text><text x="2.004" y="27.722" class="f">tileyol</text></svg><svg x="3330"><use xlink:href="#a"/><use xlink:href="#b" x="9.996" y="26.027"/><use xlink:href="#4"/><use xlink:href="#5" y="2.171"/><use xlink:href="#6" y="4.342"/><use xlink:href="#7" y="6.513"/><use xlink:href="#8" y="8.684"/><use xlink:href="#9" y="10.855"/><use xlink:href="#10" y="13.026"/><use xlink:href="#11" y="15.197"/><use xlink:href="#12" y="17.368"/><use xlink:href="#13" y="19.539"/><use xlink:href="#14" y="23.881"/><use xlink:href="#15" y="26.052"/></svg><svg x="3441"><use xlink:href="#a"/><use xlink:href="#b" x="-.004" y="28.198"/><use xlink:href="#4"/><use xlink:href="#5" y="2.171"/><use xlink:href="#6" y="4.342"/><use xlink:href="#7" y="6.513"/><use xlink:href="#8" y="8.684"/><use xlink:href="#9" y="10.855"/><use xlink:href="#10" y="13.026"/><use xlink:href="#11" y="15.197"/><use xlink:href="#12" y="17.368"/><use xlink:href="#13" y="19.539"/><use xlink:href="#14" y="23.881"/><use xlink:href="#15" y="26.052"/></svg><svg x="3552"><use xlink:href="#a"/><use xlink:href="#b" x="110.996" y="30.369"/><use xlink:href="#4"/><use xlink:href="#5" y="2.171"/><use xlink:href="#6" y="4.342"/><use xlink:href="#7" y="6.513"/><use xlink:href="#8" y="8.684"/><use xlink:href="#9" y="10.855"/><use xlink:href="#10" y="13.026"/><use xlink:href="#11" y="15.197"/><use xlink:href="#12" y="17.368"/><use xlink:href="#13" y="19.539"/><use xlink:href="#14" y="23.881"/><use xlink:href="#15" y="26.052"/><use xlink:href="#16" y="28.223"/><text y="32.064" class="f">[</text><text x="41.082" y="32.064" class="f">]</text><text x="43.086" y="32.064" class="f">0/4</text><text x="47.094" y="32.064" class="f">0%</text></svg><svg x="3663"><use xlink:href="#a"/><use xlink:href="#b" x="110.996" y="30.369"/><use xlink:href="#4"/><use xlink:href="#5" y="2.171"/><use xlink:href="#6" y="4.342"/><use xlink:href="#7" y="6.513"/><use xlink:href="#8" y="8.684"/><use xlink:href="#9" y="10.855"/><use xlink:href="#10" y="13.026"/><use xlink:href="#11" y="15.197"/><use xlink:href="#12" y="17.368"/><use xlink:href="#13" y="19.539"/><use xlink:href="#14" y="23.881"/><use xlink:href="#15" y="26.052"/><use xlink:href="#16" y="28.223"/><use xlink:href="#17" y="30.394"/></svg><svg x="3774"><use xlink:href="#a"/><use xlink:href="#b" x="110.996" y="30.369"/><use xlink:href="#4"/><use xlink:href="#5" y="2.171"/><use xlink:href="#6" y="4.342"/><use xlink:href="#7" y="6.513"/><use xlink:href="#8" y="8.684"/><use xlink:href="#9" y="10.855"/><use xlink:href="#10" y="13.026"/><use xlink:href="#11" y="15.197"/><use xlink:href="#12" y="17.368"/><use xlink:href="#13" y="19.539"/><use xlink:href="#14" y="23.881"/><use xlink:href="#15" y="26.052"/><use xlink:href="#18" y="28.223"/><use xlink:href="#17" y="30.394"/></svg><svg x="3885"><use xlink:href="#a"/><use xlink:href="#b" x="110.996" y="30.369"/><use xlink:href="#4"/><use xlink:href="#5" y="2.171"/><use xlink:href="#6" y="4.342"/><use xlink:href="#7" y="6.513"/><use xlink:href="#8" y="8.684"/><use xlink:href="#9" y="10.855"/><use xlink:href="#10" y="13.026"/><use xlink:href="#11" y="15.197"/><use xlink:href="#12" y="17.368"/><use xlink:href="#13" y="19.539"/><use xlink:href="#14" y="23.881"/><use xlink:href="#15" y="26.052"/><use xlink:href="#18" y="28.223"/><use xlink:href="#19" y="30.394"/></svg><svg x="3996"><use xlink:href="#a"/><use xlink:href="#b" x="110.996" y="30.369"/><use xlink:href="#4"/><use xlink:href="#5" y="2.171"/><use xlink:href="#6" y="4.342"/><use xlink:href="#7" y="6.513"/><use xlink:href="#8" y="8.684"/><use xlink:href="#9" y="10.855"/><use xlink:href="#10" y="13.026"/><use xlink:href="#11" y="15.197"/><use xlink:href="#12" y="17.368"/><use xlink:href="#13" y="19.539"/><use xlink:href="#14" y="23.881"/><use xlink:href="#15" y="26.052"/><use xlink:href="#20" y="28.223"/><use xlink:href="#19" y="30.394"/></svg><svg x="4107"><use xlink:href="#a"/><use xlink:href="#b" x="110.996" y="30.369"/><use xlink:href="#4"/><use xlink:href="#5" y="2.171"/><use xlink:href="#6" y="4.342"/><use xlink:href="#7" y="6.513"/><use xlink:href="#8" y="8.684"/><use xlink:href="#9" y="10.855"/><use xlink:href="#10" y="13.026"/><use xlink:href="#11" y="15.197"/><use xlink:href="#12" y="17.368"/><use xlink:href="#13" y="19.539"/><use xlink:href="#14" y="23.881"/><use xlink:href="#15" y="26.052"/><use xlink:href="#20" y="28.223"/><use xlink:href="#21" y="30.394"/></svg><svg x="4218"><use xlink:href="#a"/><use xlink:href="#b" x="110.996" y="30.369"/><use xlink:href="#4"/><use xlink:href="#5" y="2.171"/><use xlink:href="#6" y="4.342"/><use xlink:href="#7" y="6.513"/><use xlink:href="#8" y="8.684"/><use xlink:href="#9" y="10.855"/><use xlink:href="#10" y="13.026"/><use xlink:href="#11" y="15.197"/><use xlink:href="#12" y="17.368"/><use xlink:href="#13" y="19.539"/><use xlink:href="#14" y="23.881"/><use xlink:href="#15" y="26.052"/><use xlink:href="#22" y="28.223"/><use xlink:href="#21" y="30.394"/></svg><svg x="4329"><use xlink:href="#a"/><use xlink:href="#b" x="110.996" y="30.369"/><use xlink:href="#4"/><use xlink:href="#5" y="2.171"/><use xlink:href="#6" y="4.342"/><use xlink:href="#7" y="6.513"/><use xlink:href="#8" y="8.684"/><use xlink:href="#9" y="10.855"/><use xlink:href="#10" y="13.026"/><use xlink:href="#11" y="15.197"/><use xlink:href="#12" y="17.368"/><use xlink:href="#13" y="19.539"/><use xlink:href="#14" y="23.881"/><use xlink:href="#15" y="26.052"/><use xlink:href="#22" y="28.223"/><use xlink:href="#23" y="30.394"/></svg><svg x="4440"><use xlink:href="#a"/><use xlink:href="#b" x="-.004" y="36.882"/><use xlink:href="#4"/><use xlink:href="#5" y="2.171"/><use xlink:href="#6" y="4.342"/><use xlink:href="#7" y="6.513"/><use xlink:href="#8" y="8.684"/><use xlink:href="#9" y="10.855"/><use xlink:href="#10" y="13.026"/><use xlink:href="#11" y="15.197"/><use xlink:href="#12" y="17.368"/><use xlink:href="#13" y="19.539"/><use xlink:href="#14" y="23.881"/><use xlink:href="#15" y="26.052"/><use xlink:href="#24" y="28.223"/><use xlink:href="#23" y="30.394"/><use xlink:href="#25" y="32.565"/><use xlink:href="#26" y="34.736"/></svg><svg x="4551"><use xlink:href="#a"/><use xlink:href="#b" x="-.004" y="41.224"/><use xlink:href="#4"/><use xlink:href="#5" y="2.171"/><use xlink:href="#6" y="4.342"/><use xlink:href="#7" y="6.513"/><use xlink:href="#8" y="8.684"/><use xlink:href="#9" y="10.855"/><use xlink:href="#10" y="13.026"/><use xlink:href="#11" y="15.197"/><use xlink:href="#12" y="17.368"/><use xlink:href="#13" y="19.539"/><use xlink:href="#14" y="23.881"/><use xlink:href="#15" y="26.052"/><use xlink:href="#24" y="28.223"/><use xlink:href="#23" y="30.394"/><use xlink:href="#25" y="32.565"/><use xlink:href="#26" y="34.736"/><use xlink:href="#27" y="39.078"/></svg><svg x="4662"><use xlink:href="#a"/><use xlink:href="#b" x="-.004" y="65.105"/><use xlink:href="#4"/><use xlink:href="#5" y="2.171"/><use xlink:href="#6" y="4.342"/><use xlink:href="#7" y="6.513"/><use xlink:href="#8" y="8.684"/><use xlink:href="#9" y="10.855"/><use xlink:href="#10" y="13.026"/><use xlink:href="#11" y="15.197"/><use xlink:href="#12" y="17.368"/><use xlink:href="#13" y="19.539"/><use xlink:href="#14" y="23.881"/><use xlink:href="#15" y="26.052"/><use xlink:href="#24" y="28.223"/><use xlink:href="#23" y="30.394"/><use xlink:href="#25" y="32.565"/><use xlink:href="#26" y="34.736"/><use xlink:href="#27" y="39.078"/><use xlink:href="#28" y="41.249"/><use xlink:href="#29" y="43.42"/><use xlink:href="#30" y="45.591"/><use xlink:href="#31" y="47.762"/><use xlink:href="#32" y="49.933"/><use xlink:href="#33" y="52.104"/><use xlink:href="#28" y="54.275"/><use xlink:href="#34" y="58.617"/><use xlink:href="#35" y="60.788"/><use xlink:href="#36" y="62.959"/></svg><svg x="4773"><use xlink:href="#a"/><use xlink:href="#b" x="-.004" y="67.276"/><use xlink:href="#4"/><use xlink:href="#5" y="2.171"/><use xlink:href="#6" y="4.342"/><use xlink:href="#7" y="6.513"/><use xlink:href="#8" y="8.684"/><use xlink:href="#9" y="10.855"/><use xlink:href="#10" y="13.026"/><use xlink:href="#11" y="15.197"/><use xlink:href="#12" y="17.368"/><use xlink:href="#13" y="19.539"/><use xlink:href="#14" y="23.881"/><use xlink:href="#15" y="26.052"/><use xlink:href="#24" y="28.223"/><use xlink:href="#23" y="30.394"/><use xlink:href="#25" y="32.565"/><use xlink:href="#26" y="34.736"/><use xlink:href="#27" y="39.078"/><use xlink:href="#28" y="41.249"/><use xlink:href="#29" y="43.42"/><use xlink:href="#30" y="45.591"/><use xlink:href="#31" y="47.762"/><use xlink:href="#32" y="49.933"/><use xlink:href="#33" y="52.104"/><use xlink:href="#28" y="54.275"/><use xlink:href="#34" y="58.617"/><use xlink:href="#35" y="60.788"/><use xlink:href="#36" y="62.959"/><use xlink:href="#37" y="65.13"/></svg><svg x="4884"><use xlink:href="#a"/><use xlink:href="#b" x="-.004" y="69.447"/><use xlink:href="#4"/><use xlink:href="#5" y="2.171"/><use xlink:href="#6" y="4.342"/><use xlink:href="#7" y="6.513"/><use xlink:href="#8" y="8.684"/><use xlink:href="#9" y="10.855"/><use xlink:href="#10" y="13.026"/><use xlink:href="#11" y="15.197"/><use xlink:href="#12" y="17.368"/><use xlink:href="#13" y="19.539"/><use xlink:href="#14" y="23.881"/><use xlink:href="#15" y="26.052"/><use xlink:href="#24" y="28.223"/><use xlink:href="#23" y="30.394"/><use xlink:href="#25" y="32.565"/><use xlink:href="#26" y="34.736"/><use xlink:href="#27" y="39.078"/><use xlink:href="#28" y="41.249"/><use xlink:href="#29" y="43.42"/><use xlink:href="#30" y="45.591"/><use xlink:href="#31" y="47.762"/><use xlink:href="#32" y="49.933"/><use xlink:href="#33" y="52.104"/><use xlink:href="#28" y="54.275"/><use xlink:href="#34" y="58.617"/><use xlink:href="#35" y="60.788"/><use xlink:href="#36" y="62.959"/><use xlink:href="#37" y="65.13"/></svg><svg x="4995"><use xlink:href="#a"/><use xlink:href="#b" x="-.004" y="71.618"/><use xlink:href="#4"/><use xlink:href="#5" y="2.171"/><use xlink:href="#6" y="4.342"/><use xlink:href="#7" y="6.513"/><use xlink:href="#8" y="8.684"/><use xlink:href="#9" y="10.855"/><use xlink:href="#10" y="13.026"/><use xlink:href="#11" y="15.197"/><use xlink:href="#12" y="17.368"/><use xlink:href="#13" y="19.539"/><use xlink:href="#14" y="23.881"/><use xlink:href="#15" y="26.052"/><use xlink:href="#24" y="28.223"/><use xlink:href="#23" y="30.394"/><use xlink:href="#25" y="32.565"/><use xlink:href="#26" y="34.736"/><use xlink:href="#27" y="39.078"/><use xlink:href="#28" y="41.249"/><use xlink:href="#29" y="43.42"/><use xlink:href="#30" y="45.591"/><use xlink:href="#31" y="47.762"/><use xlink:href="#32" y="49.933"/><use xlink:href="#33" y="52.104"/><use xlink:href="#28" y="54.275"/><use xlink:href="#34" y="58.617"/><use xlink:href="#35" y="60.788"/><use xlink:href="#36" y="62.959"/><use xlink:href="#37" y="65.13"/><use xlink:href="#38" y="69.472"/></svg><svg x="5106"><use xlink:href="#a"/><use xlink:href="#b" x="-.004" y="71.618"/><use xlink:href="#4"/><use xlink:href="#5" y="2.171"/><use xlink:href="#6" y="4.342"/><use xlink:href="#7" y="6.513"/><use xlink:href="#8" y="8.684"/><use xlink:href="#9" y="10.855"/><use xlink:href="#10" y="13.026"/><use xlink:href="#11" y="15.197"/><use xlink:href="#12" y="17.368"/><use xlink:href="#13" y="19.539"/><use xlink:href="#14" y="23.881"/><use xlink:href="#15" y="26.052"/><use xlink:href="#24" y="28.223"/><use xlink:href="#23" y="30.394"/><use xlink:href="#25" y="32.565"/><use xlink:href="#26" y="34.736"/><use xlink:href="#27" y="39.078"/><use xlink:href="#28" y="41.249"/><use xlink:href="#29" y="43.42"/><use xlink:href="#30" y="45.591"/><use xlink:href="#31" y="47.762"/><use xlink:href="#32" y="49.933"/><use xlink:href="#33" y="52.104"/><use xlink:href="#28" y="54.275"/><use xlink:href="#34" y="58.617"/><use xlink:href="#35" y="60.788"/><use xlink:href="#36" y="62.959"/><use xlink:href="#37" y="65.13"/><use xlink:href="#38" y="69.472"/></svg></svg></g></g></svg></svg>